<?xml version="1.0" encoding="utf-8"?>
<!-- Generator: Adobe Illustrator 24.1.2, SVG Export Plug-In . SVG Version: 6.00 Build 0)  -->
<svg version="1.1" id="Camada_1" xmlns="http://www.w3.org/2000/svg" xmlns:xlink="http://www.w3.org/1999/xlink" x="0px" y="0px"
	 viewBox="0 0 253.1 197.5" style="enable-background:new 0 0 253.1 197.5;" xml:space="preserve">
<style type="text/css">
	.st0{fill:#FFFFFF;}
	.st1{fill:#E3352E;}
	.st2{fill:#ECE335;}
</style>
<g>
	<path class="st0" d="M38.4,71.9c-5.5-0.5-10.6-2.2-14.7-6.1c-2.2-2.1-3.7-4.7-4.2-8.2c1.2,0.6,2.3,1,3.3,1.6
		c1.6,0.9,2.7,0.4,2.9-1.4c0.2-2.2-0.7-4.1-2.7-4.8c-6.6-2.3-7.9-8.5-6.7-14.7c0.9-4.4,2.5-8.6,4.7-12.5c0.3,0.2,0.6,0.3,1,0.5
		c0.2,3.8,0.3,7.7,1.4,11.4c0.6,1.8,1.2,3.6,2.9,4.7c1,0.7,2.2,1.5,3.6,0.8c1.3-0.6,1.5-1.9,1.7-3.2c0.1-0.8-0.6-2,0.6-2.4
		c1.3-0.4,1.8,0.9,2.4,1.7c1.1,1.4,1.5,3,1.6,4.8c0.3,4.9,1.8,9.3,5.4,12.7c1.6,1.6,3.7,2.7,5.9,2.8c3.2,0.1,6.4-3.1,6.8-6.4
		c0.3-3-0.5-5.6-2.7-7.8c-3.3-3.4-6.7-6.8-9.9-10.3c-4.7-5.1-6.1-11-4.4-18.1c2.7,3.7,5.5,6.8,8.7,9.5c9.9,8.3,21.5,12.9,34.1,15
		C88,43,96,43.2,104,42.8c13.6-0.8,26.6-3.9,39.2-8.8c12.2-4.7,24.7-8.3,37.6-10.1c6.2-0.9,12.4-1.6,18.7-1.2
		c14.2,1,26.4,6.3,35.4,17.4c10.1,12.4,11.4,30.7-2.5,44.5c-2.8,2.8-5.9,5.1-9.2,7.7c0.5-2.3,1.1-4.3,1.3-6.4
		c0.9-7.3-3-12.4-10.4-13.5c-8.4-1.3-16.3,0.4-24.2,3c-11.3,3.8-22,8.9-32.5,14.5c-22.7,12.1-46.9,17.4-72.5,15.9
		c-13.2-0.8-25.9-3.6-37.9-9.3c-0.8-0.4-1.7-0.8-2.8-1.4c1.5-0.7,2.8-0.8,3.8-1.6c0.9-0.7,1.4-1.6,1.2-2.7c-0.1-1.1-0.9-1.7-1.9-2
		c-3.3-1.1-6.6-0.3-9.8,0.7c-3.8,1.2-7.1,3.2-10.3,6.4c0.9-5.1,3.2-8.8,6.6-11.9c3-2.8,6.5-5.1,10.6-5.8c7.1-1.2,13.2,1,18.4,5.8
		c1,0.9,2,1.7,3.6,1.7c2.6-0.1,3.7-1.8,2.4-4.1c-0.5-1-1.3-1.8-2-2.9c3-0.1,5.5,0.9,7.9,2.4c1.4,0.9,2.9,1.8,4.4,2.6
		c1.8,0.9,5.7-1.3,6.8-3.7c1.7-3.7,1-7.4-2.2-10c-4.8-3.9-10.2-4.4-16-2.6c-7.6,2.5-15.3,4.5-23.4,4.8c-1.7,0.1-3.5,0.1-5.2-0.2
		C39,71.5,38.7,71.5,38.4,71.9z"/>
	<path class="st0" d="M93.5,111.8c-2.9,0-5.9-0.1-8.8-0.3c-14.6-0.9-28.1-4.2-40-9.9c-0.6-0.3-1.2-0.6-1.9-1l-1-0.5
		c-1.9-1-3.1-2.9-3.1-5.1c-2.7,1-5,2.5-7.2,4.7c-1.1,1.1-2.6,1.7-4,1.7c-0.9,0-1.8-0.2-2.6-0.6c-2.2-1.1-3.4-3.6-3-6
		c1.1-6,3.8-10.9,8.3-15.1c1.1-1,2.3-2,3.4-2.8c-5.5-1.1-10-3.4-13.7-7c-3.3-3.1-5.2-6.9-5.9-11.5c-0.2-1.4,0.1-2.9,0.9-4
		c-3.9-4-5.4-10.1-4-17.2c1-4.8,2.8-9.6,5.4-14.2c1-1.8,3-2.9,4.9-2.9c0.8,0,1.7,0.2,2.5,0.6l1,0.5c1.8,0.9,3,2.7,3.1,4.7
		c0,0.6,0.1,1.2,0.1,1.8c0.1,2,0.2,3.8,0.5,5.6c0.9-0.7,1.7-1,2.1-1.1c0.7-0.2,1.5-0.4,2.3-0.4c0.1,0,0.1,0,0.2,0
		c-2.1-4.9-2.4-10.2-1-16.1c0.5-2.1,2.3-3.8,4.4-4.2c0.4-0.1,0.7-0.1,1.1-0.1c1.8,0,3.5,0.9,4.6,2.3c2.5,3.5,5,6.2,7.7,8.5
		C58.1,29.5,68.4,34,81,36.1c5.1,0.8,10.3,1.3,15.9,1.3c2.2,0,4.5-0.1,6.8-0.2c12.2-0.7,24.5-3.4,37.5-8.4
		c13.7-5.2,26.4-8.6,38.8-10.4c5-0.7,10.3-1.4,15.7-1.4c1.4,0,2.8,0,4.2,0.1c16.6,1.2,29.9,7.7,39.4,19.5
		c13.1,16.1,11.9,37.5-2.9,52.1c-2.4,2.4-5.1,4.5-7.6,6.5c-0.7,0.5-1.3,1-2,1.6c-1,0.8-2.3,1.3-3.6,1.3c-1,0-2.1-0.3-3-0.8
		c-2-1.3-3.1-3.7-2.6-6c0.2-0.8,0.3-1.5,0.5-2.3c0.3-1.4,0.6-2.5,0.7-3.6c0.5-4.2-1.3-6.5-5.6-7.2c-1.6-0.3-3.3-0.4-5-0.4
		c-4.8,0-9.9,1-16.5,3.2c-9.5,3.2-19.2,7.5-31.6,14.1C139.3,106.1,116.8,111.8,93.5,111.8z M68.8,73c3.1,0.2,6.1,1.3,9.1,3.3
		c0.8,0.5,1.7,1.1,2.5,1.6c0.2-0.1,0.4-0.3,0.5-0.4c0.7-1.6,0.1-2.4-0.6-3.1c-2-1.6-4-2.3-6.4-2.3c-1.3,0-2.8,0.3-4.3,0.7
		C69.3,72.8,69.1,72.9,68.8,73z M60.8,75.3c0.4,0.2,0.7,0.4,1.1,0.6c0.2-0.4,0.5-0.8,0.8-1.1C62.1,75,61.4,75.2,60.8,75.3z
		 M41.8,43.8c0.2,3.9,1.4,6.8,3.7,9c0.7,0.7,1.5,1.2,2.1,1.2c0.4-0.2,1-0.9,1-1.3c0.2-1.4-0.1-2.2-1.1-3.2c-1.9-2-3.8-3.9-5.7-5.9
		C41.8,43.7,41.8,43.8,41.8,43.8z"/>
	<path class="st0" d="M38.4,71.9c-5.5-0.5-10.6-2.2-14.7-6.1c-2.2-2.1-3.7-4.7-4.2-8.2c1.2,0.6,2.3,1,3.3,1.6
		c1.6,0.9,2.7,0.4,2.9-1.4c0.2-2.2-0.7-4.1-2.7-4.8c-6.6-2.3-7.9-8.5-6.7-14.7c0.9-4.4,2.5-8.6,4.7-12.5c0.3,0.2,0.6,0.3,1,0.5
		c0.2,3.8,0.3,7.7,1.4,11.4c0.6,1.8,1.2,3.6,2.9,4.7c1,0.7,2.2,1.5,3.6,0.8c1.3-0.6,1.5-1.9,1.7-3.2c0.1-0.8-0.6-2,0.6-2.4
		c1.3-0.4,1.8,0.9,2.4,1.7c1.1,1.4,1.5,3,1.6,4.8c0.3,4.9,1.8,9.3,5.4,12.7c1.6,1.6,3.7,2.7,5.9,2.8c3.2,0.1,6.4-3.1,6.8-6.4
		c0.3-3-0.5-5.6-2.7-7.8c-3.3-3.4-6.7-6.8-9.9-10.3c-4.7-5.1-6.1-11-4.4-18.1c2.7,3.7,5.5,6.8,8.7,9.5c9.9,8.3,21.5,12.9,34.1,15
		C88,43,96,43.2,104,42.8c13.6-0.8,26.6-3.9,39.2-8.8c12.2-4.7,24.7-8.3,37.6-10.1c6.2-0.9,12.4-1.6,18.7-1.2
		c14.2,1,26.4,6.3,35.4,17.4c10.1,12.4,11.4,30.7-2.5,44.5c-2.8,2.8-5.9,5.1-9.2,7.7c0.5-2.3,1.1-4.3,1.3-6.4
		c0.9-7.3-3-12.4-10.4-13.5c-8.4-1.3-16.3,0.4-24.2,3c-11.3,3.8-22,8.9-32.5,14.5c-22.7,12.1-46.9,17.4-72.5,15.9
		c-13.2-0.8-25.9-3.6-37.9-9.3c-0.8-0.4-1.7-0.8-2.8-1.4c1.5-0.7,2.8-0.8,3.8-1.6c0.9-0.7,1.4-1.6,1.2-2.7c-0.1-1.1-0.9-1.7-1.9-2
		c-3.3-1.1-6.6-0.3-9.8,0.7c-3.8,1.2-7.1,3.2-10.3,6.4c0.9-5.1,3.2-8.8,6.6-11.9c3-2.8,6.5-5.1,10.6-5.8c7.1-1.2,13.2,1,18.4,5.8
		c1,0.9,2,1.7,3.6,1.7c2.6-0.1,3.7-1.8,2.4-4.1c-0.5-1-1.3-1.8-2-2.9c3-0.1,5.5,0.9,7.9,2.4c1.4,0.9,2.9,1.8,4.4,2.6
		c1.8,0.9,5.7-1.3,6.8-3.7c1.7-3.7,1-7.4-2.2-10c-4.8-3.9-10.2-4.4-16-2.6c-7.6,2.5-15.3,4.5-23.4,4.8c-1.7,0.1-3.5,0.1-5.2-0.2
		C39,71.5,38.7,71.5,38.4,71.9z"/>
	<path class="st1" d="M38.4,71.9c-5.5-0.5-10.6-2.2-14.7-6.1c-2.2-2.1-3.7-4.7-4.2-8.2c1.2,0.6,2.3,1,3.3,1.6
		c1.6,0.9,2.7,0.4,2.9-1.4c0.2-2.2-0.7-4.1-2.7-4.8c-6.6-2.3-7.9-8.5-6.7-14.7c0.9-4.4,2.5-8.6,4.7-12.5c0.3,0.2,0.6,0.3,1,0.5
		c0.2,3.8,0.3,7.7,1.4,11.4c0.6,1.8,1.2,3.6,2.9,4.7c1,0.7,2.2,1.5,3.6,0.8c1.3-0.6,1.5-1.9,1.7-3.2c0.1-0.8-0.6-2,0.6-2.4
		c1.3-0.4,1.8,0.9,2.4,1.7c1.1,1.4,1.5,3,1.6,4.8c0.3,4.9,1.8,9.3,5.4,12.7c1.6,1.6,3.7,2.7,5.9,2.8c3.2,0.1,6.4-3.1,6.8-6.4
		c0.3-3-0.5-5.6-2.7-7.8c-3.3-3.4-6.7-6.8-9.9-10.3c-4.7-5.1-6.1-11-4.4-18.1c2.7,3.7,5.5,6.8,8.7,9.5c9.9,8.3,21.5,12.9,34.1,15
		C88,43,96,43.2,104,42.8c13.6-0.8,26.6-3.9,39.2-8.8c12.2-4.7,24.7-8.3,37.6-10.1c6.2-0.9,12.4-1.6,18.7-1.2
		c14.2,1,26.4,6.3,35.4,17.4c10.1,12.4,11.4,30.7-2.5,44.5c-2.8,2.8-5.9,5.1-9.2,7.7c0.5-2.3,1.1-4.3,1.3-6.4
		c0.9-7.3-3-12.4-10.4-13.5c-8.4-1.3-16.3,0.4-24.2,3c-11.3,3.8-22,8.9-32.5,14.5c-22.7,12.1-46.9,17.4-72.5,15.9
		c-13.2-0.8-25.9-3.6-37.9-9.3c-0.8-0.4-1.7-0.8-2.8-1.4c1.5-0.7,2.8-0.8,3.8-1.6c0.9-0.7,1.4-1.6,1.2-2.7c-0.1-1.1-0.9-1.7-1.9-2
		c-3.3-1.1-6.6-0.3-9.8,0.7c-3.8,1.2-7.1,3.2-10.3,6.4c0.9-5.1,3.2-8.8,6.6-11.9c3-2.8,6.5-5.1,10.6-5.8c7.1-1.2,13.2,1,18.4,5.8
		c1,0.9,2,1.7,3.6,1.7c2.6-0.1,3.7-1.8,2.4-4.1c-0.5-1-1.3-1.8-2-2.9c3-0.1,5.5,0.9,7.9,2.4c1.4,0.9,2.9,1.8,4.4,2.6
		c1.8,0.9,5.7-1.3,6.8-3.7c1.7-3.7,1-7.4-2.2-10c-4.8-3.9-10.2-4.4-16-2.6c-7.6,2.5-15.3,4.5-23.4,4.8c-1.7,0.1-3.5,0.1-5.2-0.2
		C39,71.5,38.7,71.5,38.4,71.9z"/>
	<g>
		<g>
			<path class="st2" d="M108.5,59.5c1.4-0.3,3.3,0.2,4.9-0.1c1.6-0.3,3.1-0.7,4.4-1.1c1.3-0.4,2.6-0.8,3.7-1.1
				c1.1-0.3,2.2-0.4,3.4-0.1c1.9,0.4,3.9,1.9,5.6,3.6c1.7,1.7,2.9,3.9,3.6,6.7c0.5,1.9,0.7,3.8,0.6,5.8c-0.1,2-0.7,3.8-1.8,5.3
				c-1,1.4-2.3,2.5-3.9,3.2c-1.6,0.7-3.4,1.2-5.2,1.5c-1.9,0.3-3.8,0.4-5.8,0.4c-2,0-3.9,0-5.6,0.1c0.4-1.6,0.5-3.5,0.4-5.6
				c-0.1-2.1-0.4-4.3-0.8-6.5c-0.5-2.5-1-4.5-2.1-7C108.9,62.3,107.5,59.9,108.5,59.5z M125.3,71.4c-0.2-0.9-0.5-1.9-0.9-3
				c-0.4-1.1-0.8-2.2-1.3-3.1c-0.5-1-1-1.4-1.5-2c-0.6-0.6-1.2-0.8-1.7-0.6c-0.4,0.1-0.7,0.4-0.8,0.8c-0.2,0.4-0.2,0.9-0.2,1.4
				c0,0.5,0,0.8,0.1,1.4c0.1,0.6,0.2,1.2,0.3,1.8c0.1,0.4,0.2,0.9,0.4,1.6c0.2,0.7,0.4,1.4,0.6,2.1c0.2,0.8,0.5,1.5,0.8,2.3
				c0.3,0.8,0.6,1.5,1,2.1c0.4,0.6,0.7,1.1,1.1,1.5c0.4,0.4,0.8,0.5,1.3,0.5c0.7-0.1,1.2-0.7,1.4-1.9
				C125.9,75,125.7,73.4,125.3,71.4z"/>
			<path class="st2" d="M133.1,60.2c0.6-0.5,1.3-0.9,2-1.2c0.7-0.4,1.5-0.7,2.5-0.9c1.9-0.5,3.5-0.7,4.8-0.5
				c1.3,0.2,2.2,0.8,2.6,2.3c0.2,0.7,0.3,1.6,0.4,2.6c0,1,0,2.1,0,3.2c0,1.1,0,2.1,0,3.1c0,1,0.1,1.8,0.3,2.3
				c0.1,0.5,0.4,0.8,0.7,1.1c0.3,0.2,0.6,0.3,0.9,0.2c0.4-0.1,0.7-0.6,0.9-1.4c0.2-0.8,0.4-1.7,0.4-2.7c0-1.1,0-2.2-0.2-3.4
				c-0.1-1.2-0.4-2.4-0.7-3.5c-0.5-1.5-1-2.8-1.6-3.4c-0.6-0.6-1.3-1.1-2.1-1.4c0.9-0.6,1.9-1,3-1.4c0.9-0.3,1.8-0.5,2.6-0.7
				c0.9-0.1,1.6-0.2,2.3-0.1s1.3,0.3,1.8,0.6c0.5,0.3,0.9,1,1.2,1.7c0.2,0.6,0.3,1.3,0.4,2.1c0,0.8,0.1,1.6,0.1,2.4
				c0,0.8,0,1.6,0.1,2.4c0,0.8,0.1,1.5,0.3,2c0.2,0.7,0.5,1.1,0.9,1.3c0.4,0.2,0.8,0.2,1.3,0c0.7-0.3,1.2-1,1.6-1.9
				c0.5,0.5,0.9,1.1,1.1,1.9c0.2,0.7,0.2,1.4,0.1,2.1c-0.1,0.8-0.4,1.5-0.7,2.2c-0.4,0.7-0.8,1.4-1.4,2c-0.6,0.6-1.2,1.1-1.8,1.4
				c-0.7,0.4-1.4,0.5-2.2,0.4c-0.8-0.1-1.6-0.5-2.5-1.3c-0.6,1.2-1.3,2.3-2.1,3.2c-0.8,0.9-2,1.7-3.5,2.3c-1.3,0.5-2.4,0.7-3.3,0.6
				c-0.9-0.1-1.7-0.4-2.4-0.9c-0.7-0.5-1.2-1.1-1.6-1.8c-0.4-0.7-0.7-1.5-0.9-2.3c-0.2-0.8-0.4-1.6-0.5-2.5
				c-0.1-0.9-0.2-1.8-0.3-2.8c-0.1-0.9-0.2-1.9-0.3-2.8c-0.1-0.9-0.3-1.8-0.5-2.6c-0.3-1-0.7-1.9-1.2-2.7
				C134.8,60.9,134.1,60.6,133.1,60.2z"/>
			<path class="st2" d="M184.6,54.7c0.3,0.2,0.6,0.3,0.7,0.5c0.2,0.2,0.3,0.4,0.4,0.7c0.1,0.5,0.1,1-0.2,1.6
				c-0.3,0.6-0.8,1.3-1.4,1.9c-0.6,0.7-1.3,1.3-2.1,1.9c-0.8,0.6-1.5,1.1-2.2,1.4c-0.8,0.4-1.6,0.6-2.2,0.6c-0.7,0-1.2-0.3-1.7-0.9
				c-1.1,1.9-2.9,3.4-5,4.6c-1.4,0.8-2.6,1.2-3.7,1.1c-1.1,0-2-0.4-2.9-1c-0.9-0.6-1.7-1.5-2.4-2.6c-0.7-1.1-1.3-2.3-1.8-3.7
				c-0.4-1.1-0.7-2.3-0.8-3.6c-0.1-1.3-0.1-2.5,0.1-3.7c0.2-1.2,0.7-2.2,1.3-3.1c0.6-1,1.5-1.7,2.7-2.2c1.1-0.4,2.2-0.6,3.3-0.5
				c1.2,0.1,2.2,0.4,3.2,0.9c-0.1-0.5-0.1-0.9-0.3-1.4c-0.1-0.5-0.3-1-0.5-1.6c-0.5-1.1-1.2-2.1-2.1-2.8c-0.9-0.7-2.3-1-4-0.7
				c0.6-0.4,1.4-0.8,2.4-1.2c1-0.4,2.1-0.7,3.3-0.9c2.2-0.3,3.8-0.2,5,0.2c1.2,0.4,2.1,1.1,2.6,2.4c0.3,0.6,0.5,1.3,0.6,2.1
				c0.1,0.8,0.2,1.5,0.3,2.3c0.1,0.8,0.2,1.7,0.4,2.7c0.2,0.9,0.5,1.9,0.9,2.8c0.2,0.5,0.5,1,0.8,1.5c0.3,0.5,0.7,0.9,1,1.2
				c0.4,0.3,0.8,0.5,1.2,0.6c0.4,0.1,0.9,0,1.4-0.2C183.8,55.5,184.2,55.2,184.6,54.7z M168,57.8c0.6,1.4,1.1,2.5,1.7,3.1
				c0.6,0.6,1.2,0.8,1.7,0.5c0.4-0.2,0.7-0.6,0.9-1.1c0.2-0.5,0.2-1.1,0.2-1.7c0-0.6-0.1-1.3-0.3-1.9c-0.2-0.7-0.4-1.3-0.6-1.9
				c-0.2-0.5-0.4-0.9-0.7-1.4c-0.3-0.5-0.5-0.8-0.8-1.2c-0.3-0.3-0.6-0.6-1-0.7c-0.3-0.2-0.7-0.2-1,0c-0.4,0.2-0.7,0.4-0.9,0.9
				c-0.2,0.4-0.3,0.9-0.3,1.5c0,0.6,0.1,1.2,0.3,1.9C167.5,56.4,167.7,57.1,168,57.8z"/>
			<path class="st2" d="M181.5,44.7c0.6-0.2,1.3-0.4,2-0.4c0.7-0.1,1.6-0.1,2.6,0c1.9,0.1,3.6,0.5,5,1.1c1.4,0.5,2.4,1.2,2.9,2
				c0.3,0.4,0.4,0.8,0.5,1.3c0.1,0.5,0.1,1,0.1,1.4c0,0.5,0.1,1,0.1,1.4c0,0.5,0.1,0.9,0.3,1.2c0.2,0.3,0.4,0.5,0.7,0.7
				c0.3,0.2,0.6,0.3,0.9,0.4c0.4,0.1,0.7-0.1,1-0.4c0.3-0.3,0.4-0.7,0.4-1.1c0-0.5-0.1-1-0.2-1.6c-0.2-0.6-0.5-1.2-0.9-1.8
				c-0.6-0.8-1.2-1.6-1.9-2.1c-0.7-0.6-1.5-1.1-2.3-1.6c1,0.1,2,0.3,3.1,0.6c0.9,0.3,1.8,0.6,2.6,1.1c0.8,0.4,1.6,0.9,2.3,1.3
				c0.7,0.5,1.3,0.9,1.9,1.4c0.6,0.5,1,0.9,1.3,1.3c0.3,0.3,0.5,0.6,0.6,0.9c0.1,0.3,0.3,0.5,0.4,0.8c0.1,0.3,0.2,0.6,0.3,0.9
				c0.1,0.3,0.3,0.6,0.5,0.9c0.3,0.4,0.6,0.7,1,1c0.4,0.3,0.9,0.5,1.4,0.7c0.7,0.2,1.2,0.2,1.6,0.1c0.6,0.5,1.1,0.9,1.3,1.3
				c0.2,0.4,0.3,0.7,0.1,1c-0.1,0.3-0.5,0.5-0.9,0.7c-0.5,0.2-1.1,0.3-1.7,0.4c-0.7,0-1.4,0-2.1-0.1c-0.8-0.1-1.5-0.4-2.3-0.9
				c-0.8-0.4-1.5-1.1-2.3-2c-0.7,0.4-1.6,0.7-2.7,0.9c-1,0.2-2.4,0.2-4,0.1c-1.4-0.1-2.5-0.1-3.4-0.3c-0.9-0.2-1.6-0.4-2.2-0.7
				s-1-0.7-1.4-1.2c-0.4-0.5-0.6-1-0.9-1.5c-0.2-0.5-0.4-1-0.5-1.6c-0.1-0.6-0.3-1.1-0.4-1.7c-0.1-0.6-0.2-1.1-0.4-1.6
				c-0.1-0.5-0.3-1-0.6-1.5c-0.3-0.6-0.8-1.2-1.4-1.6C183.3,45.4,182.5,45.1,181.5,44.7z"/>
		</g>
	</g>
	<g>
		<path class="st0" d="M109,160.2c-0.2-1.9-0.3-4-0.3-6.2c0-1.9,0.1-3.9,0.2-5.9c0.1-2,0.3-3.9,0.6-5.6c0.2-1.7,0.5-3.3,0.8-4.8
			c0.3-1.5,0.6-2.3,0.7-2.7c1.2-2.9,0.6-6.3-1.5-8.7c-1.6-1.9-4-3-6.5-3c-0.6,0-1.3,0.1-1.9,0.2c-0.4,0.1-0.8,0.2-1.2,0.2
			c-0.4,0-0.8,0.1-1.2,0.1c-0.6,0-1.1,0-1.6-0.1c-0.8-0.1-1.6-0.2-2.4-0.3c-0.3,0-0.7-0.1-1-0.1c-0.3,0-0.6,0-0.9,0.1
			c-0.1,0-0.2,0-0.3,0c-0.2,0-0.3,0-0.4,0c-1.3,0.1-2.5,0.1-3.7,0.2c-1,0.1-2,0.1-3.1,0.1H84c-0.1,0-0.3,0-0.4,0
			c-0.4,0-0.7-0.1-1.1-0.1c-2.3,0-4.6,1-6.2,2.7c-1.9,2-2.7,4.7-2.2,7.4c0.3,1.9,0.6,3.8,0.8,5.6c0.2,1.7,0.3,3.5,0.3,5.3
			c0,1.4-0.1,2.9-0.2,4.3c-0.1,1.4-0.3,2.8-0.6,4.2c-0.5,2.9,0.5,5.9,2.7,7.9c1.1,1,2.4,1.6,3.8,1.9c-1,2.4-0.9,5.2,0.4,7.5
			c1.5,2.7,4.3,4.4,7.4,4.4c0.2,0,0.4,0,0.6,0c1.1-0.1,2.2-0.1,3.4-0.1c1.3,0,2.7,0,3.9,0.1c1.5,0.1,3,0.2,4.3,0.3
			c0.1,0,0.3,0,0.4,0c2.6,0,5-1.1,6.6-3.1c1.7-2.1,2.3-4.9,1.7-7.5C109.4,163.4,109.2,161.9,109,160.2z"/>
		<path class="st0" d="M202.5,154.3c-0.3-1-0.6-2-1.1-3c0.2-0.3,0.3-0.7,0.5-1c0.7-1.7,1-3.4,1-5.1c0-2.3-0.5-4.4-1.6-6.3
			c-0.9-1.6-2.1-3-3.6-4.2c-1.4-1.1-3-1.9-4.8-2.5c-1.6-0.5-3.4-0.8-5.1-0.8c-1.8,0-3.6,0.3-5.3,0.9c-1.2,0.4-2.4,1-3.5,1.7
			c-2.4-1.7-5.3-2.5-8.4-2.5c-3,0-5.7,0.7-8,2.2c-1.9-1.3-4.2-2-6.7-2c-1.6,0-3.1,0.3-4.5,0.8c-1.3-0.5-2.7-0.7-4.2-0.7
			c-0.9,0-1.8,0.1-2.8,0.3c-0.5-1.1-1.1-2.1-1.9-3.1c-1.5-1.9-3.4-3.4-5.7-4.4c-2.2-1-4.7-1.5-7.5-1.5c-3.1,0-5.9,0.6-8.3,1.8
			c-2.3,1.1-4.3,2.6-5.9,4.4c-1.6,1.8-2.8,3.8-3.5,6c-0.7,2-1,4.1-1,6.1c0,2.4,0.5,4.7,1.4,6.7c-0.8,1.4-1.5,2.8-2,4.4
			c-0.6,1.8-0.9,3.8-0.9,5.9c0,2.2,0.3,4.2,1,6.2c0.7,2,1.7,3.9,3.1,5.5c1.4,1.7,3.1,3,5.1,4c2.1,1.1,4.4,1.6,6.9,1.6
			c1.9,0,3.8-0.3,5.7-1c1.4,0.5,2.9,0.8,4.4,0.8c1.3,0,2.7-0.2,4-0.7c1,0.4,2.1,0.6,3.1,0.6c0.5,0,1,0,1.6-0.1
			c1-0.2,1.9-0.3,2.8-0.3c0.8,0,1.6,0,2.4-0.1c0.9,0.3,1.8,0.4,2.7,0.4c0.3,0,0.6,0,0.8,0c1.2-0.1,2.3-0.2,3.5-0.2
			c1.4,0,2.9-0.1,4.6-0.2c1.2,0,2.3-0.3,3.3-0.8c2,0.9,4.2,1.4,6.6,1.4c2.9,0,5.7-0.7,7.9-2.2c2.5,1.6,5.5,2.4,8.7,2.4
			c2.1,0,4.1-0.3,6-1c2.1-0.8,3.9-1.9,5.5-3.5c1.5-1.5,2.6-3.2,3.4-5.2c0.8-1.9,1.2-4.1,1.2-6.3
			C203.2,157.7,202.9,155.9,202.5,154.3z"/>
	</g>
	<g>
		<path class="st1" d="M103.1,126.3c-0.4,0-0.8,0-1.3,0.1c-0.5,0.1-1,0.2-1.5,0.3c-0.5,0.1-1,0.1-1.5,0.1c-0.7,0-1.3,0-1.9-0.1
			c-0.8-0.1-1.6-0.2-2.4-0.3c-0.2,0-0.4,0-0.6,0c-0.3,0-0.6,0-0.8,0.1c-0.1,0-0.3,0-0.4,0c-0.1,0-0.2,0-0.3,0
			c-1.3,0.1-2.5,0.1-3.7,0.2c-1,0.1-2.2,0.1-3.3,0.1H84c-0.2,0-0.5,0-0.8-0.1c-0.2,0-0.5,0-0.7,0c-1.5,0-3,0.6-4.1,1.8
			c-1.2,1.3-1.8,3.1-1.5,4.9c0.4,2,0.6,3.9,0.8,5.9c0.2,1.8,0.3,3.7,0.3,5.6c0,1.5-0.1,3-0.2,4.5c-0.1,1.5-0.3,3-0.6,4.5
			c-0.4,2,0.3,4,1.8,5.3c1.1,0.9,2.4,1.4,3.8,1.4c0.6,0,1.1-0.1,1.7-0.3c0.6-0.2,1.1-0.3,1.6-0.4c-0.5,1.1-1.1,2.3-1.9,3.4
			c-1.3,1.8-1.5,4.2-0.4,6.1c1,1.8,2.9,2.9,5,2.9c0.1,0,0.3,0,0.4,0c1.1-0.1,2.4-0.1,3.6-0.1c1.4,0,2.8,0,4.1,0.1
			c1.5,0.1,2.9,0.2,4.3,0.2c0.1,0,0.2,0,0.3,0c1.7,0,3.3-0.8,4.4-2.1c1.1-1.4,1.6-3.2,1.1-5c-0.3-1.4-0.6-3.1-0.8-4.9
			c-0.2-2-0.3-4.2-0.3-6.4c0-2,0.1-4.1,0.2-6.1c0.1-2,0.3-4,0.6-5.8c0.2-1.8,0.5-3.5,0.8-5c0.3-1.6,0.7-2.6,0.9-3.1
			c0.8-2,0.4-4.2-1-5.8C106.3,127,104.8,126.3,103.1,126.3z"/>
		<path class="st1" d="M199.7,155c-0.4-1.3-0.9-2.6-1.5-3.8c0,0,0-0.1,0-0.1c0.4-0.6,0.8-1.3,1-2c0.5-1.3,0.8-2.7,0.8-4
			c0-1.8-0.4-3.4-1.3-4.9c-0.7-1.3-1.7-2.4-2.9-3.3c-1.1-0.9-2.4-1.6-3.9-2c-1.4-0.4-2.8-0.7-4.3-0.7c-1.5,0-3,0.2-4.4,0.7
			c-1.6,0.5-3,1.4-4.2,2.5c-0.1,0.1-0.1,0.1-0.2,0.2c-0.4-0.4-0.8-0.8-1.3-1.1c-2-1.5-4.4-2.2-7.1-2.2c-2.8,0-5.3,0.8-7.4,2.3
			c-0.3,0.2-0.5,0.4-0.8,0.7c-0.4-0.4-0.9-0.9-1.4-1.2c-1.5-1-3.3-1.6-5.2-1.6c-1.6,0-3.1,0.4-4.5,1.1c-1.1-0.5-2.5-1-4.2-1
			c-0.9,0-1.9,0.1-2.9,0.3c-0.6,0.1-1.1,0.3-1.7,0.5c-0.5-1.8-1.3-3.4-2.3-4.8c-1.2-1.5-2.7-2.7-4.6-3.6c-1.8-0.8-3.9-1.3-6.3-1.3
			c-2.6,0-5,0.5-7.1,1.5c-2,0.9-3.6,2.2-5,3.7c-1.3,1.5-2.3,3.2-2.9,5.1c-0.6,1.7-0.9,3.5-0.9,5.2c0,2.2,0.5,4.2,1.4,6
			c0.2,0.3,0.3,0.6,0.5,0.9c-0.3,0.4-0.5,0.8-0.8,1.2c-0.8,1.2-1.4,2.5-1.8,3.9c-0.5,1.5-0.8,3.2-0.8,5c0,1.8,0.3,3.6,0.9,5.3
			c0.6,1.7,1.5,3.3,2.6,4.6c1.2,1.4,2.6,2.5,4.2,3.3c1.7,0.9,3.6,1.3,5.6,1.3c1.6,0,3.3-0.3,5-1c0.2-0.1,0.5-0.2,0.7-0.3
			c1.4,0.7,2.9,1,4.4,1c1.4,0,2.8-0.3,4.1-0.9c0.9,0.6,1.9,0.9,3,0.9c0.3,0,0.7,0,1-0.1c1.1-0.2,2.2-0.3,3.2-0.4c1,0,2-0.1,3-0.1
			c0.7,0.3,1.4,0.4,2.2,0.4c0.2,0,0.4,0,0.5,0c1.2-0.1,2.5-0.2,3.7-0.2c1.4,0,2.9-0.1,4.6-0.2c1.2,0,2.4-0.5,3.3-1.3
			c1.9,1.2,4.2,1.9,6.7,1.9c3,0,5.7-0.9,7.7-2.7c0.1-0.1,0.1-0.1,0.2-0.2c2.3,2,5.3,3.1,8.7,3.1c1.8,0,3.5-0.3,5-0.9
			c1.7-0.6,3.2-1.6,4.4-2.8c1.2-1.2,2.1-2.6,2.8-4.3c0.6-1.6,1-3.4,1-5.3C200.3,158,200.1,156.5,199.7,155z"/>
	</g>
	<g>
		<path class="st2" d="M92.7,132.1c-0.2,0.5-0.5,1.2-0.8,2.1c-0.3,0.9-0.5,2-0.8,3.1c-0.2,1.2-0.5,2.3-0.6,3.6
			c-0.2,1.2-0.3,2.3-0.3,3.3c0,1,0.1,1.9,0.4,2.6c0.2,0.7,0.7,1,1.2,1c0.5,0,0.9-0.3,1.2-0.8c0.3-0.5,0.6-1.2,0.7-2
			c0.2-0.8,0.3-1.8,0.4-2.9c0.1-1.1,0.1-2.2,0.1-3.4c0-1.5,0-2.8-0.1-4c-0.1-1.2-0.1-2.2-0.2-2.8c0.8,0.1,1.7,0.2,2.5,0.3
			c0.8,0.1,1.6,0.1,2.5,0.1c0.7,0,1.4,0,2.1-0.1c0.7-0.1,1.4-0.2,2.1-0.4c-0.4,1.1-0.8,2.4-1.1,4c-0.3,1.6-0.6,3.4-0.9,5.4
			c-0.3,2-0.5,4-0.6,6.2c-0.1,2.2-0.2,4.3-0.2,6.5c0,2.4,0.1,4.7,0.3,6.9c0.2,2.2,0.5,4.1,0.9,5.8c-1.3-0.1-2.7-0.1-4.2-0.2
			c-1.5-0.1-3-0.1-4.5-0.1c-1.4,0-2.7,0-4,0.1c1.4-1.9,2.4-3.8,3.1-5.8c0.7-2,1-4.1,1-6.3c-0.7-0.2-1.3-0.4-2-0.5
			c-0.7-0.1-1.3-0.1-2-0.1c-1,0-2.1,0.1-3.1,0.3c-1,0.2-2,0.4-3.1,0.8c0.3-1.8,0.6-3.5,0.7-5.1c0.1-1.7,0.2-3.3,0.2-5
			c0-2-0.1-4.1-0.3-6.1c-0.2-2-0.5-4.1-0.9-6.3c0.5,0.1,1,0.1,1.5,0.1c0.5,0,1,0,1.4,0c1.2,0,2.4,0,3.6-0.1
			C90.2,132.2,91.4,132.1,92.7,132.1z"/>
		<path class="st2" d="M140.4,159c0,0.2,0,0.3,0,0.5c0,0.2,0,0.3,0,0.5c0,0.9-0.1,1.8-0.4,2.7c-0.3,0.8-0.7,1.6-1.2,2.2
			c-0.5,0.6-1.1,1.1-1.7,1.4c-0.7,0.3-1.3,0.5-2,0.5c-0.7,0-1.3-0.2-2-0.5c-0.7-0.3-1.4-0.9-2-1.8c-1,0.9-2.1,1.6-3.1,1.9
			c-1,0.4-2,0.6-2.9,0.6c-1.1,0-2.1-0.2-3-0.7c-0.9-0.5-1.7-1.1-2.4-1.9c-0.7-0.8-1.2-1.7-1.6-2.8c-0.4-1.1-0.6-2.2-0.6-3.4
			c0-1.1,0.2-2.2,0.5-3.2c0.3-1,0.7-1.9,1.3-2.7c0.5-0.8,1.1-1.6,1.8-2.3c0.7-0.7,1.4-1.3,2.1-1.9c0.9-0.7,1.7-1.3,2.5-1.7
			c0.8-0.5,1.5-0.9,2-1.3c0.6-0.4,1-0.9,1.4-1.4c0.3-0.5,0.5-1.2,0.5-2c0-0.7-0.2-1.3-0.5-1.7c-0.3-0.4-0.9-0.6-1.6-0.6
			c-0.8,0-1.5,0.2-2,0.7c-0.6,0.4-1.1,1-1.5,1.7c-0.4,0.7-0.8,1.5-1.1,2.4c-0.3,0.9-0.6,1.7-0.8,2.5c-0.9-0.3-1.7-0.9-2.2-1.9
			c-0.5-1-0.8-2.1-0.8-3.4c0-1.1,0.2-2.2,0.6-3.3c0.4-1.2,1-2.2,1.8-3.1c0.8-0.9,1.9-1.7,3.2-2.3c1.3-0.6,2.8-0.9,4.6-0.9
			c1.6,0,2.9,0.2,4,0.7c1.1,0.5,1.9,1.1,2.5,1.9c0.6,0.8,1.1,1.7,1.4,2.8c0.3,1.1,0.4,2.2,0.4,3.3c0,0.9-0.1,2-0.2,3.3
			c-0.1,1.2-0.3,2.5-0.5,3.8c-0.2,1.3-0.3,2.6-0.5,3.9c-0.1,1.3-0.2,2.4-0.2,3.4c0,1.6,0.2,2.8,0.6,3.7c0.4,0.9,1,1.3,1.8,1.3
			C139.1,159.7,139.7,159.5,140.4,159z M129.4,151.3c-0.3,0.3-0.7,0.6-1.1,1c-0.5,0.4-0.9,0.9-1.3,1.4c-0.4,0.5-0.8,1.1-1.1,1.7
			c-0.3,0.6-0.5,1.3-0.5,2c0,0.7,0.1,1.1,0.4,1.4c0.3,0.3,0.6,0.4,1,0.4c0.5,0,0.9-0.2,1.2-0.7c0.3-0.5,0.6-1,0.8-1.7
			c0.2-0.7,0.4-1.4,0.5-2.1s0.1-1.4,0.1-2c0-0.3,0-0.6,0-0.9C129.4,151.7,129.4,151.4,129.4,151.3z"/>
		<path class="st2" d="M141.2,142.4c0.3-0.2,0.7-0.5,1.2-0.7c0.5-0.2,1-0.5,1.5-0.7s1.1-0.4,1.6-0.5c0.6-0.1,1.1-0.2,1.6-0.2
			c0.9,0,1.7,0.3,2.3,0.8c0.6,0.5,0.9,1.3,0.9,2.3c0,0.4,0,0.7-0.1,1c0,0.3-0.1,0.7-0.2,1c0.3-0.7,0.7-1.3,1.1-2
			c0.4-0.6,0.8-1.2,1.3-1.7c0.5-0.5,1-0.9,1.6-1.1c0.6-0.3,1.2-0.4,1.9-0.4c0.8,0,1.4,0.2,1.9,0.5c0.5,0.4,0.9,0.8,1.2,1.5
			c0.3,0.6,0.5,1.3,0.6,2.2c0.1,0.8,0.2,1.7,0.2,2.7c0,0.8,0,1.8-0.1,2.9c-0.1,1.1-0.1,2.2-0.2,3.3c-0.1,1.1-0.2,2.3-0.2,3.3
			c-0.1,1.1-0.1,2.1-0.1,2.9c0,1.2,0.1,2.3,0.2,3.4c0.2,1.1,0.5,2.2,0.9,3.2c-1.7,0.1-3.2,0.1-4.5,0.2c-1.4,0-2.7,0.1-4,0.3
			c0.2-1.2,0.3-2.5,0.5-3.9c0.1-1.4,0.3-2.8,0.4-4.1c0.1-1.4,0.2-2.7,0.2-3.9c0.1-1.2,0.1-2.3,0.1-3.1c0-0.9-0.1-1.7-0.2-2.3
			c-0.1-0.6-0.4-0.9-0.8-0.9c-0.4,0-0.7,0.2-0.9,0.6c-0.3,0.4-0.5,1-0.6,1.7c-0.2,0.7-0.3,1.6-0.4,2.5c-0.1,1-0.1,2-0.1,3
			c0,0.9,0,1.8,0.1,2.9c0,1,0.1,2,0.1,2.9s0.1,1.8,0.2,2.5c0.1,0.7,0.1,1.3,0.1,1.6c-1.4,0-2.8,0-4.1,0.1c-1.3,0-2.7,0.2-4.1,0.5
			c0.1-0.6,0.2-1.4,0.3-2.4s0.2-2.2,0.3-3.5c0.1-1.3,0.2-2.7,0.2-4.1c0.1-1.5,0.1-2.9,0.1-4.3c0-1.2,0-2.3-0.1-3.4s-0.2-2.1-0.3-3
			c-0.1-0.9-0.3-1.7-0.6-2.3C141.9,143.1,141.6,142.7,141.2,142.4z"/>
		<path class="st2" d="M170.5,140c1.5,0,2.8,0.4,3.8,1.1c1,0.7,1.9,1.7,2.5,3c0.6,1.2,1.1,2.6,1.4,4.2c0.3,1.6,0.4,3.2,0.4,4.9
			c0,1.4-0.1,2.9-0.3,4.5c-0.2,1.6-0.6,3-1.2,4.4c-0.6,1.3-1.4,2.5-2.5,3.4c-1.1,0.9-2.4,1.3-4.1,1.3c-1.8,0-3.2-0.5-4.3-1.5
			c-1.1-1-2-2.2-2.6-3.6c-0.6-1.4-1.1-2.9-1.3-4.5c-0.2-1.6-0.3-3-0.3-4.2c0-1.5,0.2-3,0.5-4.5c0.3-1.5,0.8-3,1.5-4.2
			c0.7-1.3,1.6-2.3,2.7-3.1C167.7,140.4,169,140,170.5,140z M168.4,153.3c0,2,0.2,3.7,0.6,5c0.4,1.3,0.9,1.9,1.6,1.9
			c0.6,0,1.1-0.6,1.5-1.9c0.3-1.3,0.5-3,0.5-5.1c0-2.5-0.2-4.3-0.5-5.3c-0.4-1-0.8-1.5-1.4-1.5c-0.6,0-1.1,0.6-1.5,1.7
			C168.7,149.2,168.4,150.9,168.4,153.3z"/>
		<path class="st2" d="M192.8,149c-0.1-0.3-0.2-0.7-0.3-1.1c-0.1-0.4-0.3-0.8-0.6-1.1s-0.5-0.6-0.9-0.9c-0.3-0.2-0.7-0.3-1.1-0.3
			c-0.4,0-0.7,0.1-0.9,0.3c-0.2,0.2-0.3,0.5-0.3,1c0,0.5,0.1,1,0.4,1.4c0.3,0.5,0.7,1,1.1,1.5s0.9,1.1,1.4,1.8
			c0.5,0.7,1,1.4,1.5,2.3c0.5,0.9,0.8,1.8,1.1,2.7c0.3,0.9,0.4,1.9,0.4,2.9c0,1.2-0.2,2.2-0.6,3.1c-0.4,0.9-0.9,1.7-1.6,2.4
			c-0.7,0.7-1.5,1.2-2.4,1.5s-1.9,0.5-3,0.5c-2.1,0-3.8-0.6-5-1.8c-1.3-1.2-1.9-2.8-1.9-4.8c0-0.8,0.1-1.6,0.4-2.3
			c0.3-0.7,0.8-1.3,1.5-1.8c0.2,1.4,0.6,2.4,1.2,3c0.6,0.6,1.2,1,1.9,1c0.6,0,1-0.2,1.2-0.5c0.3-0.3,0.4-0.7,0.4-1.2
			c0-0.5-0.2-1.1-0.5-1.6c-0.3-0.6-0.7-1.1-1.2-1.7c-0.5-0.6-1-1.1-1.5-1.7c-0.5-0.6-1-1.2-1.3-1.9c-0.4-0.7-0.8-1.5-1-2.4
			c-0.3-0.9-0.4-1.8-0.4-2.8c0-1.1,0.2-2,0.6-2.9c0.4-0.8,0.9-1.5,1.5-2.1c0.6-0.6,1.3-1,2.2-1.3c0.8-0.3,1.7-0.4,2.6-0.4
			c0.9,0,1.7,0.1,2.5,0.4c0.8,0.3,1.5,0.6,2.1,1.1c0.6,0.5,1.1,1,1.4,1.7s0.5,1.3,0.5,2.1c0,0.6-0.1,1.2-0.4,1.8
			C193.7,147.7,193.3,148.3,192.8,149z"/>
	</g>
</g>
</svg>
